<?xml version="1.0" encoding="utf-8"?>
<!-- Generator: Adobe Illustrator 17.0.0, SVG Export Plug-In . SVG Version: 6.00 Build 0)  -->
<!DOCTYPE svg PUBLIC "-//W3C//DTD SVG 1.1//EN" "http://www.w3.org/Graphics/SVG/1.1/DTD/svg11.dtd">
<svg version="1.1" id="Capa_1" xmlns="http://www.w3.org/2000/svg" xmlns:xlink="http://www.w3.org/1999/xlink" x="0px" y="0px"
	 width="691.187px" height="497.9px" viewBox="0 0 691.187 497.9" enable-background="new 0 0 691.187 497.9" xml:space="preserve">
<path fill="#283383" d="M346.649,10.406c68.42,1.144,134.417,13.025,196.8,41.872c41.621,19.247,78.631,44.792,107.549,80.971
	c20.714,25.915,34.078,55.162,38.259,88.157c8.194,64.672-9.669,121.182-54.193,169.023
	c-36.076,38.763-80.134,65.036-129.797,82.364c-37.585,13.113-76.358,20.368-116.022,23.441
	c-68.926,5.34-136.249-1.893-201.466-25.382c-47.552-17.126-90.649-41.782-126.356-78.075
	c-28.961-29.438-50.328-63.491-57.661-104.668c-11.406-64.053,2.687-121.257,48.347-169.218
	c34.36-36.092,76.306-60.273,122.484-77.694c38.02-14.343,77.33-23.339,117.786-27.044C310.431,12.498,328.557,11.63,346.649,10.406
	z M15.063,230.154c-0.277,0.885-0.518,1.348-0.554,1.827c-0.087,1.161-0.096,2.329-0.106,3.494
	c-0.229,26.646,7.024,51.295,20.177,74.273c20.146,35.193,49.489,61.204,83.55,82.192c64.302,39.621,135.19,56.775,209.881,59.809
	c51.411,2.088,102.098-3.486,151.655-17.764c49.191-14.172,94.75-35.492,133.497-69.623c29.927-26.363,52.255-57.656,60.805-97.432
	c2.592-12.057,3.567-24.235,2.487-37.097c-49.933,11.055-98.269,25.291-145.331,44.686c6.278,13.195,6.276,25.517-3.229,36.439
	c-9.072,10.425-21.272,13.502-34.539,12.286c-4.107,24.188-16.609,33.678-45.304,34.946c-8.225,19.86-23.137,27.944-44.299,24.534
	c-20.48,20.131-41.831,13.47-63.424,3.602c-0.383,0.265-0.814,0.516-1.191,0.832c-21.111,17.673-48.095,13.02-62.276-10.595
	c-0.721-1.201-2.96-1.999-4.538-2.08c-4.112-0.212-8.376,0.771-12.354,0.044c-12.812-2.341-22.698-9.101-28.455-20.955
	c-20.815,3.46-38.846-10.984-42.905-25.428c-1.209-4.302-3.327-5.098-7.379-5.083c-14.424,0.055-24.682-6.867-30.87-19.78
	c-4.11-8.578-3.442-17.432-0.538-26.985C108.09,251.352,61.504,241.064,15.063,230.154z M207.189,268.417
	c0.936-0.495,1.971-0.975,2.939-1.564c15.738-9.588,41.216-4.655,50.755,11.152c0.655,1.086,3.271,1.784,4.723,1.477
	c21.855-4.632,40.932,7.318,44.563,28.26c0.615,3.544,0.471,7.221,0.671,10.733c34.727,7.198,44.985,22.816,37.319,56.782
	c7.89,4.343,16.325,7.538,25.416,7.486c4.648-0.027,9.514-1.569,13.863-3.413c4.813-2.041,4.845-3.905,1.377-7.718
	c-8.069-8.871-16.292-17.609-24.105-26.7c-1.519-1.767-2.815-5.843-1.861-7.202c2.378-3.387,5.236-0.476,7.654,1.156
	c0.961,0.648,1.826,1.453,2.676,2.25c8.386,7.855,16.861,15.619,25.108,23.617c8.483,8.228,21.214,8.647,29.942,0.709
	c6.94-6.312,7.309-12.435,1.073-19.485c-9.932-11.228-19.912-22.411-29.864-33.622c-0.882-0.994-2.116-1.928-2.444-3.098
	c-0.438-1.558-0.816-3.967,0.01-4.821c0.893-0.924,3.571-1.162,4.819-0.49c2.742,1.477,5.259,3.52,7.54,5.679
	c10.403,9.846,20.735,19.769,31.012,29.747c8.984,8.722,23.7,7.557,34.007-2.807c8.056-8.1,7.261-18-2.25-27.527
	c-13.186-13.209-26.4-26.39-39.58-39.604c-1.288-1.291-2.82-2.563-3.511-4.159c-0.627-1.447-0.937-4.254-0.181-4.804
	c1.29-0.938,3.8-1.237,5.296-0.609c2.222,0.933,4.104,2.798,5.961,4.456c14.784,13.202,29.634,26.334,44.229,39.743
	c5.32,4.888,11.275,6.74,18.258,6.211c7.992-0.605,16.682-6.788,18.947-13.544c2.41-7.188-0.164-15.146-6.9-20.961
	c-32.912-28.41-65.69-56.976-98.839-85.107c-13.312-11.297-27.233-21.915-41.298-32.27c-7.868-5.793-17.362-8.46-27.01-6.171
	c-7.15,1.697-14.418,4.478-20.577,8.423c-11.468,7.347-22.171,15.888-33.184,23.943c-10.385,7.596-20.794,15.146-34.354,15.837
	c-13.382,0.682-26.407-0.686-37.63-8.765c-8.814-6.345-9.426-15.072-2.198-23.158c3.329-3.724,6.811-7.312,10.204-10.979
	c7.644-8.262,15.276-16.536,22.913-24.805c-0.181-0.426-0.363-0.852-0.544-1.278c-6.457,1.704-13.004,3.127-19.353,5.165
	c-18.342,5.887-36.852,6.586-55.671,2.759c-32.027-6.514-63.026-16.394-93.381-28.368c-3.059-1.206-5.187-1.087-7.522,1.288
	c-4.435,4.513-9.262,8.644-13.63,13.217c-23.353,24.45-40.303,52.378-46.537,86.115c-0.513,2.774-0.501,4.329,2.809,4.9
	c3.587,0.619,7.034,2.001,10.595,2.819c32.107,7.376,63.994,15.551,94.307,28.705c11.669,5.063,22.829,11.298,34.436,17.106
	C172.157,253.677,190.439,252.059,207.189,268.417z M675.846,214.834c-1.944-7.339-3.467-14.473-5.724-21.368
	c-10.545-32.217-30.355-58.153-55.063-80.772c-2.886-2.642-4.992-3.05-8.639-1.257c-28.469,13.994-58.306,23.512-90.157,25.373
	c-33.575,1.961-65.513-4.889-95.901-19.176c-17.592-8.271-35.93-14.048-55.329-15.918c-33.52-3.232-64.103,4.168-89.207,27.499
	c-15.224,14.15-29.197,29.65-43.657,44.616c-5.864,6.069-5.363,7.983,2.58,11.419c0.913,0.395,1.855,0.752,2.814,1.012
	c13.285,3.613,26.092,2.916,37.882-4.797c5.705-3.732,11.093-7.95,16.636-11.931c11.616-8.342,22.669-17.661,34.997-24.768
	c17.228-9.933,35.243-10.026,52.422,1.164c6.132,3.994,12.314,8.035,17.879,12.755c40.143,34.049,80.16,68.249,120.118,102.516
	c2.755,2.363,4.76,2.849,8.249,1.331c34.048-14.81,69.067-26.896,104.96-36.393C645.311,222.277,660.014,218.788,675.846,214.834z
	 M91.848,98.521c0.23,0.663,0.46,1.326,0.69,1.989c0.873,0.401,1.713,0.913,2.624,1.188c24.509,7.417,48.967,15.012,73.559,22.146
	c20.237,5.871,40.476,6.491,60.97,0.082c11.21-3.506,22.94-5.575,34.576-7.382c4.661-0.724,8.396-2.057,12.07-4.867
	c20.272-15.505,43.566-22.4,68.772-23.666c28.295-1.421,54.82,5.543,80.209,17.344c22.912,10.65,46.791,17.319,72.065,18.469
	c32.283,1.469,62.719-6.287,92.087-19.046c3.093-1.344,6.109-2.866,9.603-4.514c-1.412-1.164-2.127-1.848-2.932-2.403
	c-6.581-4.536-13.005-9.327-19.797-13.523c-59.877-36.99-125.788-54.221-195.365-59.16c-32.816-2.329-65.557-1.269-98.221,2.813
	c-50.462,6.306-98.924,19.455-144.184,42.93C122.541,79.238,107.398,89.272,91.848,98.521z M202.41,291.321
	c-0.576-7.51-2.772-13.955-8.834-18.413c-6.286-4.622-13.127-5.519-20.314-2.773c-11.11,4.246-16.488,17.42-11.534,28.077
	c2.569,5.525,6.78,9.393,12.593,11.421c8.794,3.067,16.151-0.14,23.581-5.576c0.637,2.75,0.695,5.219,0.628,7.685
	c-0.621,22.937,18.284,35.232,38.659,25.129c3.453-1.712,5.123-0.719,4.819,3.1c-0.773,9.707,4.434,15.55,12.435,19.655
	c8.043,4.127,15.794,4.693,23.22-1.553c1.52-1.279,3.67-1.809,5.529-2.684c0.711,1.933,1.825,3.816,2.069,5.806
	c1.726,14.036,13.155,24.228,27.225,24.077c13.463-0.145,25.187-10.732,26.427-23.866c1.365-14.454-7.723-27.189-21.768-29.403
	c-4.549-0.717-9.424,0.615-14.149,1.031c-2.219,0.196-4.433,0.443-6.65,0.667c0.129-2.208,0.087-4.444,0.433-6.618
	c0.391-2.453,1.28-4.826,1.695-7.277c1.874-11.061-1.908-20.455-10.046-25.213c-9.83-5.747-19.976-5.097-28.793,1.846
	c-3.713,2.924-5.039,2.309-5.817-2.698c-1.532-9.867-7.458-16.42-17.02-18.553c-9.363-2.089-17.905-0.131-25.154,6.153
	C208.429,284.129,205.807,287.605,202.41,291.321z"/>
<path fill="#FFFFFF" d="M207.189,268.417c-16.75-16.358-35.032-14.74-49.001-3.297c-11.607-5.808-22.767-12.043-34.436-17.106
	c-30.313-13.154-62.201-21.329-94.307-28.705c-3.561-0.818-7.008-2.2-10.595-2.819c-3.31-0.571-3.322-2.126-2.809-4.9
	c6.234-33.737,23.184-61.665,46.537-86.115c4.368-4.573,9.195-8.704,13.63-13.217c2.335-2.376,4.463-2.495,7.522-1.288
	c30.356,11.974,61.354,21.854,93.381,28.368c18.818,3.827,37.329,3.128,55.671-2.759c6.35-2.038,12.896-3.461,19.353-5.165
	c0.181,0.426,0.363,0.852,0.544,1.278c-7.637,8.269-15.269,16.542-22.913,24.805c-3.393,3.668-6.875,7.255-10.204,10.979
	c-7.228,8.086-6.616,16.813,2.198,23.158c11.223,8.079,24.248,9.447,37.63,8.765c13.56-0.691,23.969-8.241,34.354-15.837
	c11.013-8.055,21.716-16.597,33.184-23.943c6.16-3.946,13.427-6.727,20.577-8.423c9.647-2.29,19.141,0.378,27.01,6.171
	c14.065,10.355,27.986,20.973,41.298,32.27c33.149,28.131,65.927,56.698,98.839,85.107c6.736,5.814,9.31,13.773,6.9,20.961
	c-2.265,6.756-10.956,12.939-18.947,13.544c-6.983,0.529-12.938-1.323-18.258-6.211c-14.595-13.409-29.445-26.541-44.229-39.743
	c-1.857-1.658-3.739-3.523-5.961-4.456c-1.496-0.628-4.006-0.329-5.296,0.609c-0.756,0.55-0.446,3.357,0.181,4.804
	c0.691,1.596,2.223,2.868,3.511,4.159c13.18,13.215,26.394,26.396,39.58,39.604c9.511,9.527,10.306,19.427,2.25,27.527
	c-10.307,10.364-25.023,11.529-34.007,2.807c-10.277-9.978-20.608-19.901-31.012-29.747c-2.281-2.159-4.798-4.202-7.54-5.679
	c-1.248-0.672-3.926-0.434-4.819,0.49c-0.826,0.854-0.448,3.263-0.01,4.821c0.329,1.17,1.562,2.104,2.444,3.098
	c9.951,11.21,19.932,22.394,29.864,33.622c6.236,7.05,5.867,13.173-1.073,19.485c-8.728,7.938-21.458,7.519-29.942-0.709
	c-8.247-7.999-16.722-15.762-25.108-23.617c-0.85-0.796-1.715-1.601-2.676-2.25c-2.419-1.632-5.276-4.543-7.654-1.156
	c-0.954,1.358,0.342,5.434,1.861,7.202c7.813,9.091,16.036,17.828,24.105,26.7c3.468,3.813,3.435,5.677-1.377,7.718
	c-4.349,1.845-9.215,3.387-13.863,3.413c-9.091,0.052-17.525-3.143-25.416-7.486c7.666-33.965-2.592-49.584-37.319-56.782
	c-0.201-3.512-0.057-7.188-0.671-10.733c-3.631-20.942-22.707-32.893-44.563-28.26c-1.452,0.308-4.067-0.39-4.723-1.477
	c-9.539-15.808-35.016-20.74-50.755-11.152C209.16,267.442,208.125,267.922,207.189,268.417z"/>
<path fill="#FFFFFF" d="M675.846,214.834c-15.832,3.953-30.535,7.443-45.138,11.307c-35.894,9.497-70.912,21.582-104.96,36.393
	c-3.49,1.518-5.494,1.032-8.249-1.331c-39.959-34.266-79.975-68.466-120.118-102.516c-5.565-4.72-11.748-8.761-17.879-12.755
	c-17.179-11.191-35.194-11.097-52.422-1.164c-12.328,7.108-23.381,16.427-34.997,24.768c-5.543,3.981-10.931,8.199-16.636,11.931
	c-11.79,7.712-24.596,8.41-37.882,4.797c-0.959-0.261-1.9-0.617-2.814-1.012c-7.943-3.436-8.443-5.35-2.58-11.419
	c14.46-14.966,28.433-30.466,43.657-44.616c25.103-23.332,55.686-30.731,89.207-27.499c19.399,1.87,37.737,7.647,55.329,15.918
	c30.387,14.287,62.326,21.137,95.901,19.176c31.851-1.861,61.688-11.379,90.157-25.373c3.647-1.793,5.753-1.385,8.639,1.257
	c24.708,22.619,44.518,48.555,55.063,80.772C672.379,200.361,673.901,207.496,675.846,214.834z"/>
<path fill="#FFFFFF" d="M202.41,291.321c3.397-3.716,6.019-7.192,9.236-9.982c7.249-6.285,15.791-8.242,25.154-6.153
	c9.562,2.134,15.488,8.686,17.02,18.553c0.777,5.007,2.103,5.622,5.817,2.698c8.817-6.943,18.963-7.593,28.793-1.846
	c8.137,4.758,11.92,14.152,10.046,25.213c-0.415,2.451-1.304,4.824-1.695,7.277c-0.346,2.174-0.304,4.409-0.433,6.618
	c2.216-0.224,4.431-0.472,6.65-0.667c4.724-0.417,9.599-1.749,14.149-1.031c14.045,2.214,23.133,14.95,21.768,29.403
	c-1.24,13.134-12.964,23.722-26.427,23.866c-14.071,0.151-25.499-10.041-27.225-24.077c-0.245-1.99-1.358-3.873-2.069-5.806
	c-1.859,0.875-4.009,1.406-5.529,2.684c-7.426,6.247-15.177,5.68-23.22,1.553c-8.001-4.105-13.207-9.948-12.435-19.655
	c0.304-3.819-1.366-4.812-4.819-3.1c-20.375,10.103-39.28-2.193-38.659-25.129c0.067-2.466,0.009-4.935-0.628-7.685
	c-7.43,5.436-14.787,8.643-23.581,5.576c-5.813-2.027-10.025-5.896-12.593-11.421c-4.954-10.657,0.424-23.83,11.534-28.077
	c7.187-2.747,14.029-1.849,20.314,2.773C199.638,277.366,201.835,283.812,202.41,291.321z"/>
</svg>
