<?xml version="1.0" encoding="utf-8"?>
<!-- Generator: Adobe Illustrator 17.0.0, SVG Export Plug-In . SVG Version: 6.00 Build 0)  -->
<!DOCTYPE svg PUBLIC "-//W3C//DTD SVG 1.1//EN" "http://www.w3.org/Graphics/SVG/1.1/DTD/svg11.dtd">
<svg version="1.1" id="Capa_1" xmlns="http://www.w3.org/2000/svg" xmlns:xlink="http://www.w3.org/1999/xlink" x="0px" y="0px"
	 width="2137.6px" height="497.9px" viewBox="0 0 2137.6 497.9" enable-background="new 0 0 2137.6 497.9" xml:space="preserve">
<path fill="#283383" d="M1987.664,146.083c-1.038,4.819-1.983,9.661-3.131,14.455c-8.716,36.403-34.876,57.864-72.22,58.219
	c-11.021,0.105-22.336-0.992-33.04-3.54c-21.682-5.16-35.925-19.992-44.187-39.98c-12.679-30.677-11.463-61.007,5.592-90.013
	c9.886-16.813,24.547-27.176,43.683-31.236c16.211-3.44,32.438-3.499,48.445,0.599c28.957,7.415,43.865,28.274,51.629,55.527
	c1.396,4.899,2.168,9.975,3.228,14.969C1987.664,132.083,1987.664,139.083,1987.664,146.083z M1945.866,135.796
	c-1.755-8.936-2.665-17.431-5.157-25.432c-4.857-15.597-16.898-24.112-32.768-24.382c-16.298-0.278-28.764,7.758-34.245,23.168
	c-6.158,17.314-6.146,35.004-0.056,52.329c5.405,15.377,17.611,23.513,33.537,23.495c15.596-0.017,27.467-7.659,32.853-22.838
	C1943.042,153.65,1944.021,144.443,1945.866,135.796z"/>
<path fill="#283383" d="M346.649,10.406c68.42,1.144,134.417,13.025,196.8,41.872c41.621,19.247,78.631,44.792,107.549,80.971
	c20.714,25.915,34.078,55.162,38.259,88.157c8.194,64.672-9.669,121.182-54.193,169.023
	c-36.076,38.763-80.134,65.036-129.797,82.364c-37.585,13.113-76.358,20.368-116.022,23.441
	c-68.926,5.34-136.249-1.893-201.466-25.382c-47.552-17.126-90.649-41.782-126.356-78.075
	c-28.961-29.438-50.328-63.491-57.661-104.668c-11.406-64.053,2.687-121.257,48.347-169.218
	c34.36-36.092,76.306-60.273,122.484-77.694c38.02-14.343,77.33-23.339,117.786-27.044C310.431,12.498,328.557,11.63,346.649,10.406
	z M15.063,230.154c-0.277,0.885-0.518,1.348-0.554,1.827c-0.087,1.161-0.096,2.329-0.106,3.494
	c-0.229,26.646,7.024,51.295,20.177,74.273c20.146,35.193,49.489,61.204,83.55,82.192c64.302,39.621,135.19,56.775,209.881,59.809
	c51.411,2.088,102.098-3.486,151.655-17.764c49.191-14.172,94.75-35.492,133.497-69.623c29.927-26.363,52.255-57.656,60.805-97.432
	c2.592-12.057,3.567-24.235,2.487-37.097c-49.933,11.055-98.269,25.291-145.331,44.686c6.278,13.195,6.276,25.517-3.229,36.439
	c-9.072,10.425-21.272,13.502-34.539,12.286c-4.107,24.188-16.609,33.678-45.304,34.946c-8.225,19.86-23.137,27.944-44.299,24.534
	c-20.48,20.131-41.831,13.47-63.424,3.602c-0.383,0.265-0.814,0.516-1.191,0.832c-21.111,17.673-48.095,13.02-62.276-10.595
	c-0.721-1.201-2.96-1.999-4.538-2.08c-4.112-0.212-8.376,0.771-12.354,0.044c-12.812-2.341-22.698-9.101-28.455-20.955
	c-20.815,3.46-38.846-10.984-42.905-25.428c-1.209-4.302-3.327-5.098-7.379-5.083c-14.424,0.055-24.682-6.867-30.87-19.78
	c-4.11-8.578-3.442-17.432-0.538-26.985C108.09,251.352,61.504,241.064,15.063,230.154z M207.189,268.417
	c0.936-0.495,1.971-0.975,2.939-1.564c15.738-9.588,41.216-4.655,50.755,11.152c0.655,1.086,3.271,1.784,4.723,1.477
	c21.855-4.632,40.932,7.318,44.563,28.26c0.615,3.544,0.471,7.221,0.671,10.733c34.727,7.198,44.985,22.816,37.319,56.782
	c7.89,4.343,16.325,7.538,25.416,7.486c4.648-0.027,9.514-1.569,13.863-3.413c4.813-2.041,4.845-3.905,1.377-7.718
	c-8.069-8.871-16.292-17.609-24.105-26.7c-1.519-1.767-2.815-5.843-1.861-7.202c2.378-3.387,5.236-0.476,7.654,1.156
	c0.961,0.648,1.826,1.453,2.676,2.25c8.386,7.855,16.861,15.619,25.108,23.617c8.483,8.228,21.214,8.647,29.942,0.709
	c6.94-6.312,7.309-12.435,1.073-19.485c-9.932-11.228-19.912-22.411-29.864-33.622c-0.882-0.994-2.116-1.928-2.444-3.098
	c-0.438-1.558-0.816-3.967,0.01-4.821c0.893-0.924,3.571-1.162,4.819-0.49c2.742,1.477,5.259,3.52,7.54,5.679
	c10.403,9.846,20.735,19.769,31.012,29.747c8.984,8.722,23.7,7.557,34.007-2.807c8.056-8.1,7.261-18-2.25-27.527
	c-13.186-13.209-26.4-26.39-39.58-39.604c-1.288-1.291-2.82-2.563-3.511-4.159c-0.627-1.447-0.937-4.254-0.181-4.804
	c1.29-0.938,3.8-1.237,5.296-0.609c2.222,0.933,4.104,2.798,5.961,4.456c14.784,13.202,29.634,26.334,44.229,39.743
	c5.32,4.888,11.275,6.74,18.258,6.211c7.992-0.605,16.682-6.788,18.947-13.544c2.41-7.188-0.164-15.146-6.9-20.961
	c-32.912-28.41-65.69-56.976-98.839-85.107c-13.312-11.297-27.233-21.915-41.298-32.27c-7.868-5.793-17.362-8.46-27.01-6.171
	c-7.15,1.697-14.418,4.478-20.577,8.423c-11.468,7.347-22.171,15.888-33.184,23.943c-10.385,7.596-20.794,15.146-34.354,15.837
	c-13.382,0.682-26.407-0.686-37.63-8.765c-8.814-6.345-9.426-15.072-2.198-23.158c3.329-3.724,6.811-7.312,10.204-10.979
	c7.644-8.262,15.276-16.536,22.913-24.805c-0.181-0.426-0.363-0.852-0.544-1.278c-6.457,1.704-13.004,3.127-19.353,5.165
	c-18.342,5.887-36.852,6.586-55.671,2.759c-32.027-6.514-63.026-16.394-93.381-28.368c-3.059-1.206-5.187-1.087-7.522,1.288
	c-4.435,4.513-9.262,8.644-13.63,13.217c-23.353,24.45-40.303,52.378-46.537,86.115c-0.513,2.774-0.501,4.329,2.809,4.9
	c3.587,0.619,7.034,2.001,10.595,2.819c32.107,7.376,63.994,15.551,94.307,28.705c11.669,5.063,22.829,11.298,34.436,17.106
	C172.157,253.677,190.439,252.059,207.189,268.417z M675.846,214.834c-1.944-7.339-3.467-14.473-5.724-21.368
	c-10.545-32.217-30.355-58.153-55.063-80.772c-2.886-2.642-4.992-3.05-8.639-1.257c-28.469,13.994-58.306,23.512-90.157,25.373
	c-33.575,1.961-65.513-4.889-95.901-19.176c-17.592-8.271-35.93-14.048-55.329-15.918c-33.52-3.232-64.103,4.168-89.207,27.499
	c-15.224,14.15-29.197,29.65-43.657,44.616c-5.864,6.069-5.363,7.983,2.58,11.419c0.913,0.395,1.855,0.752,2.814,1.012
	c13.285,3.613,26.092,2.916,37.882-4.797c5.705-3.732,11.093-7.95,16.636-11.931c11.616-8.342,22.669-17.661,34.997-24.768
	c17.228-9.933,35.243-10.026,52.422,1.164c6.132,3.994,12.314,8.035,17.879,12.755c40.143,34.049,80.16,68.249,120.118,102.516
	c2.755,2.363,4.76,2.849,8.249,1.331c34.048-14.81,69.067-26.896,104.96-36.393C645.311,222.277,660.014,218.788,675.846,214.834z
	 M91.848,98.521c0.23,0.663,0.46,1.326,0.69,1.989c0.873,0.401,1.713,0.913,2.624,1.188c24.509,7.417,48.967,15.012,73.559,22.146
	c20.237,5.871,40.476,6.491,60.97,0.082c11.21-3.506,22.94-5.575,34.576-7.382c4.661-0.724,8.396-2.057,12.07-4.867
	c20.272-15.505,43.566-22.4,68.772-23.666c28.295-1.421,54.82,5.543,80.209,17.344c22.912,10.65,46.791,17.319,72.065,18.469
	c32.283,1.469,62.719-6.287,92.087-19.046c3.093-1.344,6.109-2.866,9.603-4.514c-1.412-1.164-2.127-1.848-2.932-2.403
	c-6.581-4.536-13.005-9.327-19.797-13.523c-59.877-36.99-125.788-54.221-195.365-59.16c-32.816-2.329-65.557-1.269-98.221,2.813
	c-50.462,6.306-98.924,19.455-144.184,42.93C122.541,79.238,107.398,89.272,91.848,98.521z M202.41,291.321
	c-0.576-7.51-2.772-13.955-8.834-18.413c-6.286-4.622-13.127-5.519-20.314-2.773c-11.11,4.246-16.488,17.42-11.534,28.077
	c2.569,5.525,6.78,9.393,12.593,11.421c8.794,3.067,16.151-0.14,23.581-5.576c0.637,2.75,0.695,5.219,0.628,7.685
	c-0.621,22.937,18.284,35.232,38.659,25.129c3.453-1.712,5.123-0.719,4.819,3.1c-0.773,9.707,4.434,15.55,12.435,19.655
	c8.043,4.127,15.794,4.693,23.22-1.553c1.52-1.279,3.67-1.809,5.529-2.684c0.711,1.933,1.825,3.816,2.069,5.806
	c1.726,14.036,13.155,24.228,27.225,24.077c13.463-0.145,25.187-10.732,26.427-23.866c1.365-14.454-7.723-27.189-21.768-29.403
	c-4.549-0.717-9.424,0.615-14.149,1.031c-2.219,0.196-4.433,0.443-6.65,0.667c0.129-2.208,0.087-4.444,0.433-6.618
	c0.391-2.453,1.28-4.826,1.695-7.277c1.874-11.061-1.908-20.455-10.046-25.213c-9.83-5.747-19.976-5.097-28.793,1.846
	c-3.713,2.924-5.039,2.309-5.817-2.698c-1.532-9.867-7.458-16.42-17.02-18.553c-9.363-2.089-17.905-0.131-25.154,6.153
	C208.429,284.129,205.807,287.605,202.41,291.321z"/>
<path fill="#283383" d="M906.458,73.813c2.888-2.704,5.468-5.267,8.2-7.657c28.974-25.338,92.357-18.255,102.726,37.43
	c1.211,6.503,1.724,13.22,1.766,19.843c0.186,28.988,0.003,57.978,0.164,86.966c0.023,4.137-1.152,5.467-5.334,5.358
	c-10.464-0.271-20.939-0.09-32.215-0.09c0-2.332,0-4.242,0-6.152c0-28.656,0.057-57.312-0.058-85.967
	c-0.017-4.295-0.365-8.701-1.371-12.86c-3.269-13.512-13.085-20.205-28.328-19.791c-13.06,0.354-24.115,9.609-26.45,22.321
	c-0.538,2.926-0.766,5.947-0.771,8.926c-0.054,28.989-0.031,57.978-0.029,86.967c0,1.96,0,3.92,0,6.557
	c-9.844,0-19.127,0.063-28.409-0.017c-10.741-0.093-9.216,1.506-9.242-9.224c-0.067-27.989-0.003-55.979-0.048-83.968
	c-0.005-3.32,0.021-6.717-0.624-9.947c-3.093-15.478-14.289-23.205-30.803-21.516c-14.457,1.479-24.93,13.28-25.017,28.853
	c-0.164,29.655-0.051,59.311-0.052,88.966c0,1.989,0,3.977,0,6.855c-3.696,0-7.107,0-10.518,0c-7.497,0-14.999-0.157-22.489,0.067
	c-3.553,0.106-4.544-1.167-4.532-4.613c0.106-30.988-0.211-61.979,0.135-92.964c0.365-32.706,20.511-57.93,51.42-64.265
	C868.468,48.992,889.453,54.609,906.458,73.813z"/>
<path fill="#283383" d="M1763.762,74.774c0-15.922-0.006-31.404,0.002-46.887c0.006-11.564,4.33-18.88,15.259-22.494
	c8.068-2.668,16.724-3.56,25.866-5.393c0.166,3.28,0.333,5.044,0.334,6.808c0.014,47.644,0.083,95.288-0.013,142.931
	c-0.076,37.413-25.859,64.579-63.178,67.338c-13.408,0.991-26.51,0.245-39.606-2.841c-23.392-5.513-38.42-20.14-45.359-42.592
	c-8.555-27.68-7.271-55.38,4.858-81.772c14.99-32.618,46.441-41.952,74.133-34.636c9.63,2.544,17.308,8.316,23.6,15.967
	c0.845,1.028,1.655,2.084,2.531,3.085C1762.358,74.481,1762.757,74.476,1763.762,74.774z M1692.89,135.869
	c0.472,0.106,0.943,0.212,1.415,0.317c-0.105,10.251,1.221,20.233,5.574,29.634c5.114,11.045,13.617,17.471,25.854,18.315
	c13.268,0.915,24.674-3.056,31.234-15.279c11.148-20.772,10.948-42.284,0.733-63.171c-5.981-12.229-17.057-17.664-30.879-17.002
	c-13.479,0.646-22.762,7.52-27.175,19.879C1696.508,117.349,1695.08,126.745,1692.89,135.869z"/>
<path fill="#283383" d="M1262.61,239.329c0,24.812,0,49.025,0,74.365c1.392-1.547,2.046-2.188,2.603-2.905
	c12.706-16.388,29.839-21.554,49.669-19.079c26.865,3.352,43.523,19.581,52.377,44.063c8.236,22.772,8.989,46.336,3.017,69.792
	c-7.325,28.771-28.003,45.8-58.414,49.352c-16.92,1.977-33.597,1.498-49.707-4.54c-23.171-8.685-35.842-26.073-40.256-49.904
	c-0.841-4.544-0.995-9.265-1.004-13.905c-0.075-39.156-0.043-78.313-0.043-117.469c0-16.97,5.577-24.104,22.152-28.025
	c3.546-0.839,7.196-1.329,10.827-1.693C1256.453,239.118,1259.122,239.329,1262.61,239.329z M1261.146,380.328
	c-0.114,5.954,1.656,16.825,7.596,26.708c6.999,11.647,17.554,15.998,30.785,15.299c12.604-0.665,21.538-6.82,26.347-18.164
	c8.306-19.593,8.216-39.437-0.172-59.066c-10.222-23.923-42.377-23.161-55.106-5.176
	C1263.115,350.499,1261.336,362.475,1261.146,380.328z"/>
<path fill="#283383" d="M1084.192,146.649c-2.144,17.021,10.86,34.976,27.565,37.224c8.061,1.085,16.586,0.473,24.646-0.885
	c4.349-0.733,8.592-4.177,12.071-7.301c2.534-2.276,4.625-3.569,8.106-3.509c12.627,0.217,25.261,0.085,39.187,0.085
	c-2.419,4.917-4.049,9.272-6.523,13.079c-11.372,17.501-27.346,28.24-47.999,31.875c-23.443,4.127-45.64,1.358-66.273-11.299
	c-15.605-9.573-25.626-23.126-29.426-40.934c-5.025-23.546-5.252-47.116,4.421-69.585c10.867-25.241,31.062-38.568,58.009-42.214
	c13.912-1.882,27.651-0.902,40.925,3.455c27.821,9.131,42.612,29.521,47.48,57.538c1.555,8.951,1.159,18.228,1.92,27.334
	c0.364,4.349-1.446,5.235-5.432,5.219c-34.311-0.135-68.623-0.08-102.934-0.082C1087.99,146.649,1086.045,146.649,1084.192,146.649z
	 M1155.483,119.185c-1.352-20.433-14.97-33.104-35.05-33.205c-19.818-0.1-33.99,13.077-35.379,33.205
	C1108.429,119.185,1131.783,119.185,1155.483,119.185z"/>
<path fill="#283383" d="M1649.947,383.978c-19.726,0-38.503,0-57.281,0c-18.611,0-37.222,0-55.724,0
	c-3.075,18.351,11.64,36.967,30.188,38.059c7.196,0.423,14.631-0.312,21.7-1.767c3.941-0.812,7.859-3.665,10.856-6.562
	c2.76-2.667,5.281-3.855,9.068-3.79c12.311,0.21,24.628,0.079,37.934,0.079c-1.484,3.516-2.444,6.6-4,9.347
	c-8.342,14.728-20.196,25.822-36.283,31.201c-27.006,9.03-53.345,7.6-78.328-7.258c-15.566-9.257-25.438-22.622-29.572-40.219
	c-4.848-20.638-4.864-41.276,1.244-61.616c8.855-29.489,34.256-48.887,65.024-50.276c11.018-0.497,21.921-0.141,32.667,2.842
	c28.38,7.878,48.847,32.372,51.076,61.647C1649.218,364.893,1649.464,374.158,1649.947,383.978z M1607.163,357.25
	c-0.563-21.126-17.053-35.139-38.219-33.056c-18.139,1.785-33.531,18.221-30.793,33.056
	C1561.008,357.25,1583.89,357.25,1607.163,357.25z"/>
<path fill="#283383" d="M1498.968,106.974c0.205-26.269,14.795-44.512,36.824-50.572c24.143-6.641,47.987-5.493,71.457,3.709
	c16.593,6.506,24.634,19.012,25.082,36.11c0.594,22.649,0.742,45.346-0.033,67.984c-0.744,21.719-11.504,37.8-31.785,46.144
	c-24.243,9.974-49.578,11.354-74.962,5.493c-20.026-4.624-31.979-20.575-31.854-41.107c0.044-7.236,0.513-14.798,2.654-21.627
	c4.969-15.856,17.199-24.854,32.687-28.587c13.855-3.339,28.159-4.778,42.212-7.344c4.694-0.857,9.415-2.17,13.781-4.063
	c4.581-1.986,6.997-5.896,6.86-11.196c-0.144-5.547-1.732-10.578-6.995-12.855c-11.761-5.086-23.903-5.77-35.809-0.497
	c-6.298,2.789-8.627,8.852-10.59,15.036c-0.422,1.33-2.092,3.203-3.219,3.225C1523.31,107.063,1511.337,106.974,1498.968,106.974z
	 M1592.15,138.871c-12.92,2.882-25.03,5.369-37.011,8.367c-4.434,1.109-8.891,2.898-12.767,5.297
	c-6.879,4.259-9.567,13.135-7.533,22.172c1.791,7.954,7.156,12.279,14.81,13.504c4.174,0.668,8.616,0.525,12.827-0.054
	c15.249-2.094,26.208-11.802,28.166-25.48C1591.785,154.682,1591.705,146.512,1592.15,138.871z"/>
<path fill="#283383" d="M1477.048,112.668c-14.733,0-29.173,0-43.523,0c-0.261-0.456-0.49-0.71-0.563-1.003
	c-4.148-16.83-12.021-23.66-28.188-24.437c-14.132-0.679-26.274,7.243-30.997,21.344c-5.971,17.826-6.208,36.09-0.746,54.044
	c6.969,22.905,28.483,25.723,44.692,19.539c8.455-3.225,11.597-10.974,13.966-18.978c0.557-1.882,0.881-3.832,1.346-5.898
	c14.498,0,28.755,0,43.438,0c-0.175,8.817-3.009,16.532-6.879,23.877c-12.71,24.122-33.286,35.949-60.022,37.67
	c-12.184,0.784-24.303-0.035-36.143-3.361c-23.278-6.539-37.377-22.541-44.246-44.872c-7.187-23.364-6.668-47.044,1.244-70.234
	c9.435-27.655,33.586-45.506,62.796-47.093c14.211-0.772,28.245-0.057,42.024,4.038c25.158,7.478,37.878,25.026,41.299,50.279
	C1476.765,109.188,1476.868,110.81,1477.048,112.668z"/>
<path fill="#283383" d="M1097.292,451.822c-12.76,0-25.058,0-38.21,0c0-2.234,0-4.319,0-6.404c0-57.634,0.189-115.269-0.101-172.901
	c-0.104-20.653,11.291-29.054,28.466-32.196c3.064-0.561,6.225-0.594,9.845-0.916
	C1097.292,310.376,1097.292,380.858,1097.292,451.822z"/>
<path fill="#283383" d="M1220.992,215.321c0-31.801-1.449-63.191,0.446-94.378c1.593-26.23,14.875-46.965,39.425-58.992
	c14.115-6.914,36.584-10.627,50.698-8.232c0,6.634,0,13.402,0,20.17c0,6.802,0,13.604,0,20.94c-6.656,0-12.936-0.457-19.128,0.086
	c-17.949,1.577-29.131,12.244-29.776,30.24c-0.995,27.784-0.792,55.612-1.091,83.421c-0.023,2.134-0.003,4.269-0.003,6.744
	C1247.868,215.321,1234.625,215.321,1220.992,215.321z"/>
<path fill="#283383" d="M1483.433,291.336c0,13.785,0,27.35,0,41.379c-6.923,0-13.615-0.719-20.099,0.137
	c-18.077,2.386-28.005,13.001-28.71,31.341c-0.787,20.447-0.648,40.931-0.85,61.399c-0.085,8.608-0.014,17.217-0.014,26.1
	c-13.862,0-27.097,0-40.994,0c0-1.919,0-3.689,0-5.458c0-26.144-0.027-52.287,0.007-78.431c0.053-40.8,25.847-70.292,66.292-75.658
	c6.578-0.873,13.237-1.169,19.867-1.581C1480.358,290.476,1481.824,291.042,1483.433,291.336z"/>
<path fill="#283383" d="M1140.429,451.538c0-51.94,0-103.835,0-156.143c13.576,0,26.965,0,40.745,0c0,51.904,0,103.801,0,156.143
	C1167.818,451.538,1154.293,451.538,1140.429,451.538z"/>
<path fill="#283383" d="M1140.64,279.855c-0.201-1.143-0.512-2.098-0.515-3.055c-0.033-12.276-0.022-24.553-0.022-37.173
	c13.841,0,27.216,0,40.979,0c0,13.233,0,26.571,0,40.228C1167.565,279.855,1154.186,279.855,1140.64,279.855z"/>
<path fill="#FFFFFF" d="M207.189,268.417c-16.75-16.358-35.032-14.74-49.001-3.297c-11.607-5.808-22.767-12.043-34.436-17.106
	c-30.313-13.154-62.201-21.329-94.307-28.705c-3.561-0.818-7.008-2.2-10.595-2.819c-3.31-0.571-3.322-2.126-2.809-4.9
	c6.234-33.737,23.184-61.665,46.537-86.115c4.368-4.573,9.195-8.704,13.63-13.217c2.335-2.376,4.463-2.495,7.522-1.288
	c30.356,11.974,61.354,21.854,93.381,28.368c18.818,3.827,37.329,3.128,55.671-2.759c6.35-2.038,12.896-3.461,19.353-5.165
	c0.181,0.426,0.363,0.852,0.544,1.278c-7.637,8.269-15.269,16.542-22.913,24.805c-3.393,3.668-6.875,7.255-10.204,10.979
	c-7.228,8.086-6.616,16.813,2.198,23.158c11.223,8.079,24.248,9.447,37.63,8.765c13.56-0.691,23.969-8.241,34.354-15.837
	c11.013-8.055,21.716-16.597,33.184-23.943c6.16-3.946,13.427-6.727,20.577-8.423c9.647-2.29,19.141,0.378,27.01,6.171
	c14.065,10.355,27.986,20.973,41.298,32.27c33.149,28.131,65.927,56.698,98.839,85.107c6.736,5.814,9.31,13.773,6.9,20.961
	c-2.265,6.756-10.956,12.939-18.947,13.544c-6.983,0.529-12.938-1.323-18.258-6.211c-14.595-13.409-29.445-26.541-44.229-39.743
	c-1.857-1.658-3.739-3.523-5.961-4.456c-1.496-0.628-4.006-0.329-5.296,0.609c-0.756,0.55-0.446,3.357,0.181,4.804
	c0.691,1.596,2.223,2.868,3.511,4.159c13.18,13.215,26.394,26.396,39.58,39.604c9.511,9.527,10.306,19.427,2.25,27.527
	c-10.307,10.364-25.023,11.529-34.007,2.807c-10.277-9.978-20.608-19.901-31.012-29.747c-2.281-2.159-4.798-4.202-7.54-5.679
	c-1.248-0.672-3.926-0.434-4.819,0.49c-0.826,0.854-0.448,3.263-0.01,4.821c0.329,1.17,1.562,2.104,2.444,3.098
	c9.951,11.21,19.932,22.394,29.864,33.622c6.236,7.05,5.867,13.173-1.073,19.485c-8.728,7.938-21.458,7.519-29.942-0.709
	c-8.247-7.999-16.722-15.762-25.108-23.617c-0.85-0.796-1.715-1.601-2.676-2.25c-2.419-1.632-5.276-4.543-7.654-1.156
	c-0.954,1.358,0.342,5.434,1.861,7.202c7.813,9.091,16.036,17.828,24.105,26.7c3.468,3.813,3.435,5.677-1.377,7.718
	c-4.349,1.845-9.215,3.387-13.863,3.413c-9.091,0.052-17.525-3.143-25.416-7.486c7.666-33.965-2.592-49.584-37.319-56.782
	c-0.201-3.512-0.057-7.188-0.671-10.733c-3.631-20.942-22.707-32.893-44.563-28.26c-1.452,0.308-4.067-0.39-4.723-1.477
	c-9.539-15.808-35.016-20.74-50.755-11.152C209.16,267.442,208.125,267.922,207.189,268.417z"/>
<path fill="#FFFFFF" d="M675.846,214.834c-15.832,3.953-30.535,7.443-45.138,11.307c-35.894,9.497-70.912,21.582-104.96,36.393
	c-3.49,1.518-5.494,1.032-8.249-1.331c-39.959-34.266-79.975-68.466-120.118-102.516c-5.565-4.72-11.748-8.761-17.879-12.755
	c-17.179-11.191-35.194-11.097-52.422-1.164c-12.328,7.108-23.381,16.427-34.997,24.768c-5.543,3.981-10.931,8.199-16.636,11.931
	c-11.79,7.712-24.596,8.41-37.882,4.797c-0.959-0.261-1.9-0.617-2.814-1.012c-7.943-3.436-8.443-5.35-2.58-11.419
	c14.46-14.966,28.433-30.466,43.657-44.616c25.103-23.332,55.686-30.731,89.207-27.499c19.399,1.87,37.737,7.647,55.329,15.918
	c30.387,14.287,62.326,21.137,95.901,19.176c31.851-1.861,61.688-11.379,90.157-25.373c3.647-1.793,5.753-1.385,8.639,1.257
	c24.708,22.619,44.518,48.555,55.063,80.772C672.379,200.361,673.901,207.496,675.846,214.834z"/>
<path fill="#FFFFFF" d="M202.41,291.321c3.397-3.716,6.019-7.192,9.236-9.982c7.249-6.285,15.791-8.242,25.154-6.153
	c9.562,2.134,15.488,8.686,17.02,18.553c0.777,5.007,2.103,5.622,5.817,2.698c8.817-6.943,18.963-7.593,28.793-1.846
	c8.137,4.758,11.92,14.152,10.046,25.213c-0.415,2.451-1.304,4.824-1.695,7.277c-0.346,2.174-0.304,4.409-0.433,6.618
	c2.216-0.224,4.431-0.472,6.65-0.667c4.724-0.417,9.599-1.749,14.149-1.031c14.045,2.214,23.133,14.95,21.768,29.403
	c-1.24,13.134-12.964,23.722-26.427,23.866c-14.071,0.151-25.499-10.041-27.225-24.077c-0.245-1.99-1.358-3.873-2.069-5.806
	c-1.859,0.875-4.009,1.406-5.529,2.684c-7.426,6.247-15.177,5.68-23.22,1.553c-8.001-4.105-13.207-9.948-12.435-19.655
	c0.304-3.819-1.366-4.812-4.819-3.1c-20.375,10.103-39.28-2.193-38.659-25.129c0.067-2.466,0.009-4.935-0.628-7.685
	c-7.43,5.436-14.787,8.643-23.581,5.576c-5.813-2.027-10.025-5.896-12.593-11.421c-4.954-10.657,0.424-23.83,11.534-28.077
	c7.187-2.747,14.029-1.849,20.314,2.773C199.638,277.366,201.835,283.812,202.41,291.321z"/>
</svg>
